<?xml version="1.0" standalone="no"?>
<!DOCTYPE svg PUBLIC "-//W3C//DTD SVG 20010904//EN"
 "http://www.w3.org/TR/2001/REC-SVG-20010904/DTD/svg10.dtd">
<svg version="1.0" xmlns="http://www.w3.org/2000/svg"
 width="1024.000000pt" height="1024.000000pt" viewBox="0 0 1024.000000 1024.000000"
 preserveAspectRatio="xMidYMid meet">

<g transform="translate(0.000000,1024.000000) scale(0.100000,-0.100000)"
fill="#000000" stroke="none">
<path d="M3741 8445 c-141 -40 -282 -156 -342 -281 -35 -73 -69 -222 -69 -301
0 -177 81 -368 208 -491 l55 -52 -36 -78 c-45 -99 -81 -214 -102 -327 -9 -49
-18 -99 -20 -110 -2 -11 -38 -45 -81 -75 -149 -107 -364 -358 -364 -426 0 -22
16 -47 61 -97 l61 -68 -12 -81 c-34 -216 25 -447 169 -668 61 -94 228 -272
334 -357 47 -38 66 -60 63 -71 -25 -86 -58 -190 -65 -201 -7 -11 -17 -9 -52
12 -24 14 -74 42 -110 61 -51 27 -68 41 -74 63 -11 46 -63 129 -117 188 -93
102 -231 178 -398 221 -86 22 -281 23 -377 1 -269 -60 -471 -239 -514 -458
-11 -58 -14 -62 -62 -87 -79 -43 -205 -139 -291 -221 -235 -227 -395 -530
-463 -876 -24 -124 -24 -414 1 -540 45 -224 135 -434 263 -615 140 -195 359
-385 568 -490 239 -120 466 -166 768 -157 318 10 535 74 811 241 60 36 116 66
124 66 7 0 44 -18 80 -39 501 -292 1129 -470 1757 -497 451 -20 1080 92 1495
267 603 254 1035 587 1506 1160 416 507 788 1180 972 1760 234 732 185 1376
-133 1771 -61 76 -189 188 -264 232 -170 99 -326 141 -516 140 -191 -2 -342
-42 -497 -133 -470 -275 -759 -801 -819 -1489 -9 -107 -15 -139 -23 -125 -5
10 -38 57 -73 105 -35 48 -63 91 -63 94 0 4 13 28 28 53 148 244 159 494 43
936 -58 218 -185 590 -269 786 l-20 47 69 47 c187 128 289 322 289 549 -1 277
-152 496 -404 584 -103 36 -242 36 -344 -1 -141 -50 -271 -150 -357 -277 -27
-38 -52 -70 -55 -70 -4 0 -36 13 -72 29 -345 157 -835 213 -1194 137 -67 -14
-180 -46 -251 -71 -72 -25 -134 -45 -140 -45 -5 0 -16 15 -25 33 -50 103 -184
218 -313 268 -67 26 -97 32 -185 35 -74 3 -121 -1 -159 -11z m307 -235 c68
-36 136 -104 176 -175 l25 -45 -22 -11 c-12 -6 -46 -28 -76 -48 l-53 -36 -26
35 c-81 109 -187 172 -278 165 -63 -5 -155 -58 -182 -105 -9 -17 -21 -30 -25
-30 -5 0 -5 6 -1 13 5 8 4 9 -4 2 -7 -6 -16 -35 -22 -64 -20 -107 28 -267 103
-339 l33 -32 35 48 c20 26 67 80 104 120 l68 73 -19 35 c-44 81 -116 134 -203
151 l-66 13 57 -4 c72 -6 137 -42 189 -108 57 -72 59 -92 16 -131 -41 -38
-151 -167 -167 -197 -10 -19 -12 -19 -46 12 -45 41 -101 155 -116 236 -32 173
55 365 196 434 56 27 68 29 151 26 79 -3 97 -8 153 -38z m2776 -14 c78 -38
131 -93 169 -174 30 -63 32 -74 32 -182 0 -108 -2 -119 -31 -181 -18 -37 -48
-85 -69 -107 -43 -48 -138 -99 -198 -106 -91 -11 -137 -13 -137 -6 0 4 38 10
85 12 173 11 286 105 330 275 17 63 20 179 6 187 -13 8 -42 -4 -35 -15 3 -5
-2 -6 -10 -3 -20 8 -152 -33 -195 -61 -50 -32 -85 -71 -120 -135 -32 -57 -43
-63 -15 -7 55 108 121 161 246 198 40 12 77 25 81 29 11 10 -68 79 -112 97
-128 55 -315 -45 -396 -210 -41 -85 -59 -177 -39 -205 7 -11 44 -44 83 -76 38
-31 72 -64 75 -73 4 -9 -19 7 -51 36 -84 77 -100 91 -106 91 -10 0 40 -144 91
-266 94 -222 208 -595 236 -774 31 -203 27 -401 -14 -559 -46 -183 -142 -404
-236 -548 -147 -225 -321 -386 -609 -568 -35 -22 -67 -43 -71 -47 -9 -10 85
-1 173 16 38 7 104 14 147 15 43 1 103 7 134 12 180 29 509 20 600 -18 148
-60 201 -108 263 -238 87 -181 100 -445 39 -776 -46 -246 -152 -448 -282 -537
-125 -85 -290 -150 -508 -197 -85 -19 -164 -37 -176 -40 -18 -6 -22 -1 -28 32
-14 86 -38 83 -87 -13 -39 -78 -117 -162 -205 -221 -33 -23 -89 -73 -123 -112
-58 -65 -66 -71 -102 -71 -36 0 -39 2 -48 38 -21 72 -6 181 43 320 8 23 13 42
10 42 -3 0 -22 -9 -43 -20 -75 -38 -139 -152 -167 -300 -15 -77 -24 -90 -61
-90 -29 0 -58 29 -79 77 -23 56 -13 183 24 308 17 55 29 102 26 104 -10 10
-77 -35 -111 -74 -20 -22 -46 -63 -59 -90 -24 -52 -53 -173 -55 -228 -1 -31
-2 -30 -27 23 -24 48 -27 67 -26 145 1 106 19 166 84 280 118 207 344 368 578
411 163 30 297 62 354 84 75 28 151 97 191 174 28 56 31 71 35 174 4 101 1
122 -23 200 -15 48 -37 105 -50 126 l-23 39 -6 -34 c-3 -19 -7 -68 -10 -109
-6 -96 -32 -221 -59 -284 -13 -31 -35 -59 -61 -77 -50 -37 -171 -74 -306 -94
-58 -8 -138 -25 -179 -36 -213 -58 -453 -222 -577 -394 -167 -235 -203 -554
-80 -732 59 -87 117 -124 266 -174 l135 -44 175 1 c169 0 177 1 230 27 57 28
114 76 162 136 15 19 30 32 33 30 2 -3 -23 -35 -56 -72 -82 -91 -164 -132
-265 -132 -64 0 -74 -3 -93 -25 -11 -14 -23 -34 -25 -45 -12 -56 -26 -156 -26
-183 0 -28 -3 -31 -50 -41 -111 -24 -336 -4 -510 45 -236 67 -463 242 -565
436 -54 102 -87 240 -88 368 0 66 -3 94 -8 75 -4 -16 -12 -45 -17 -63 -6 -18
-11 -33 -11 -35 0 -3 -18 -54 -43 -117 -46 -117 -156 -306 -215 -370 -13 -14
-36 -42 -50 -63 l-27 -39 24 -19 c14 -10 29 -19 34 -19 5 0 17 -6 25 -14 17
-15 198 -108 245 -126 16 -6 26 -13 23 -17 -11 -10 -299 141 -365 193 -2 1 19
30 46 63 193 232 313 506 352 807 17 129 8 383 -18 505 -51 236 -152 464 -280
634 -25 33 -84 99 -131 147 l-85 88 18 52 c15 43 85 217 91 225 0 1 35 -8 76
-21 40 -13 67 -24 58 -25 -8 -1 -37 6 -62 15 -26 9 -53 14 -61 11 -12 -5 -87
-180 -101 -237 -5 -21 5 -35 61 -90 99 -96 234 -273 267 -350 9 -20 12 1 18
112 7 146 33 263 90 407 21 55 26 77 17 82 -7 4 0 9 18 11 26 3 19 9 -79 73
-419 271 -709 540 -822 765 -55 111 -69 165 -69 275 -1 107 13 178 50 262 13
29 19 53 13 53 -17 0 -149 81 -149 92 0 24 156 178 260 258 l115 88 23 122
c45 232 154 510 256 647 358 486 996 712 1661 588 192 -36 403 -104 573 -185
46 -22 88 -40 92 -40 4 0 11 12 15 28 20 81 114 224 186 283 114 93 182 120
294 117 65 -3 91 -9 139 -32z m-209 -588 c-4 -18 -10 -60 -15 -93 l-7 -60 -2
48 c-1 47 16 137 26 137 3 0 2 -15 -2 -32z m52 -360 c106 -259 212 -545 257
-693 49 -160 107 -392 105 -422 0 -10 -11 28 -25 85 -24 103 -62 243 -111 402
-28 93 -137 380 -232 614 -34 81 -61 151 -61 154 0 17 19 -22 67 -140z m381
-1318 c0 -52 -3 -108 -7 -124 -3 -16 -6 47 -6 140 0 98 3 150 7 124 3 -25 6
-88 6 -140z m-76 -188 c16 -24 32 -41 35 -38 3 3 9 20 13 38 l8 33 0 -30 c0
-16 -3 -40 -6 -52 -6 -19 -15 -11 -76 65 -37 48 -54 74 -36 57 18 -16 45 -49
62 -73z m-126 13 c-23 -257 -154 -471 -406 -666 -85 -66 -200 -143 -200 -134
0 3 35 28 77 56 214 141 371 310 452 483 30 64 60 183 68 268 3 37 8 68 11 68
3 0 2 -34 -2 -75z m98 -512 l17 -28 -19 22 -20 22 -28 -30 c-61 -64 -174 -147
-260 -191 -79 -40 -249 -96 -260 -85 -2 2 35 14 83 27 157 41 297 125 425 253
20 20 38 37 41 37 3 0 12 -12 21 -27z m161 -256 c114 -190 260 -452 240 -435
-4 4 -35 58 -69 120 -81 147 -195 342 -263 446 -49 77 -66 109 -44 87 5 -6 66
-104 136 -218z m-4230 115 c74 -23 116 -44 178 -89 42 -31 97 -96 97 -115 0
-3 -24 -17 -53 -31 -71 -32 -117 -75 -152 -139 -42 -79 -83 -136 -106 -149
-35 -18 -79 -1 -95 37 -22 53 -18 152 11 236 33 95 33 94 10 90 -75 -14 -151
-133 -176 -277 -22 -126 -76 -153 -151 -75 -51 53 -59 120 -28 239 36 139 35
130 12 124 -73 -19 -155 -147 -171 -267 -6 -38 -14 -73 -19 -78 -18 -18 -46
-3 -70 37 -19 34 -22 50 -19 105 12 188 164 332 392 371 80 13 272 3 340 -19z
m3465 -162 c-14 -4 -34 -8 -45 -8 -16 0 -15 2 5 8 14 4 34 8 45 8 16 0 15 -2
-5 -8z m-2192 -116 c45 -9 81 -19 78 -21 -4 -4 -178 26 -185 33 -8 8 25 4 107
-12z m-907 -145 c141 -46 284 -145 432 -298 122 -127 192 -226 257 -364 102
-216 125 -324 125 -582 0 -265 -31 -400 -145 -630 -231 -466 -691 -745 -1228
-745 -667 0 -1245 495 -1342 1148 -18 128 -14 353 9 469 40 193 112 363 218
511 115 160 245 287 369 360 l51 30 11 -32 c6 -17 24 -45 40 -63 l29 -31 -82
-56 c-45 -31 -120 -95 -167 -144 -226 -234 -337 -506 -338 -827 -1 -342 124
-634 371 -870 99 -95 141 -125 270 -194 292 -156 616 -187 942 -90 228 68 454
231 615 444 79 105 157 269 193 410 75 290 41 577 -102 856 -136 265 -382 486
-644 580 -55 20 -57 24 -25 97 23 50 42 53 141 21z m4186 -285 c101 -217 177
-439 233 -679 30 -128 61 -326 57 -359 -4 -30 -4 -30 -5 4 -5 96 -70 399 -129
595 -51 171 -166 459 -223 557 -6 10 -10 21 -10 25 0 18 22 -22 77 -143z
m-4345 75 c156 -52 256 -113 383 -230 145 -136 251 -307 309 -499 152 -511
-89 -1066 -571 -1312 -287 -147 -610 -160 -936 -39 -135 51 -310 170 -405 278
-190 215 -278 430 -289 704 -7 165 6 265 53 409 69 214 212 406 391 528 92 62
117 72 181 72 32 0 79 6 103 13 38 12 47 12 58 -1 12 -12 11 -13 -8 -7 -12 3
-36 2 -54 -4 -17 -6 -62 -12 -99 -14 -57 -3 -76 -10 -137 -46 -91 -54 -235
-191 -295 -281 -65 -96 -121 -219 -153 -336 -25 -91 -27 -114 -27 -279 0 -156
3 -192 23 -268 52 -200 136 -349 280 -499 292 -307 751 -418 1164 -283 275 89
504 294 641 570 124 250 147 540 65 802 -71 223 -190 400 -362 538 -97 78
-175 123 -275 159 -91 32 -103 32 -133 0 -47 -50 -104 -68 -219 -70 -77 -1
-118 -6 -155 -20 -40 -16 -63 -18 -115 -13 -67 7 -127 25 -117 35 3 4 26 -2
51 -11 51 -20 151 -17 201 5 18 8 71 14 135 15 116 1 157 15 215 73 17 17 31
31 33 31 1 1 30 -8 64 -20z m4184 -557 c22 -82 30 -294 14 -389 -20 -127 -74
-227 -178 -332 -96 -96 -178 -149 -368 -236 -145 -67 -177 -88 -279 -186 -76
-73 -130 -149 -190 -268 -51 -102 -84 -248 -92 -415 l-6 -128 44 7 c24 3 104
22 178 41 73 20 135 34 137 31 2 -2 -40 -15 -94 -30 -109 -31 -269 -66 -274
-62 -9 10 14 285 31 362 49 225 174 419 362 561 30 23 114 68 186 101 298 134
452 280 519 491 36 113 27 381 -17 508 -10 30 -19 58 -18 61 1 12 30 -62 45
-117z m-5166 -115 c33 -17 51 -34 68 -67 39 -77 26 -198 -29 -256 -19 -21 -19
-21 4 -31 39 -18 62 -78 62 -159 0 -92 -31 -144 -108 -180 -47 -22 -65 -24
-194 -24 l-143 0 0 368 c0 203 3 372 8 376 4 5 70 5 147 1 116 -5 148 -10 185
-28z m490 0 c65 -32 92 -88 88 -184 -3 -63 -7 -76 -35 -111 l-32 -39 24 -13
c33 -18 58 -74 63 -141 7 -98 -33 -174 -113 -210 -33 -15 -66 -19 -187 -19
l-148 0 0 369 0 370 38 4 c20 2 87 2 147 -1 86 -3 120 -8 155 -25z m290 -244
c0 -297 3 -317 50 -340 19 -9 29 -9 51 3 15 7 31 20 36 26 4 7 10 141 13 298
l5 285 56 3 c90 5 86 19 85 -320 -1 -331 -4 -345 -78 -399 -91 -65 -243 -56
-310 18 -45 49 -48 77 -48 391 0 164 3 302 7 305 3 4 35 7 70 7 l63 0 0 -277z
m493 255 c8 -13 31 -65 53 -115 l39 -93 55 113 55 112 73 3 c51 2 72 -1 72 -9
0 -7 -40 -90 -90 -185 l-89 -173 75 -158 c41 -87 81 -170 89 -185 8 -14 15
-29 15 -32 0 -3 -37 -6 -82 -6 l-83 0 -50 110 c-27 60 -52 106 -56 102 -4 -4
-24 -47 -44 -97 -21 -49 -42 -96 -48 -102 -10 -13 -167 -19 -167 -7 0 4 13 28
28 53 38 61 152 297 152 314 0 7 -36 91 -80 187 -44 96 -80 177 -80 182 0 4
34 8 75 8 67 0 76 -2 88 -22z m4354 -535 c-3 -10 -5 -2 -5 17 0 19 2 27 5 18
2 -10 2 -26 0 -35z m27 -348 l5 -180 -57 -55 c-190 -185 -444 -358 -698 -476
-179 -83 -449 -183 -461 -170 -3 2 14 10 38 16 24 7 97 32 162 56 368 137 700
337 940 568 45 43 57 62 59 88 2 44 -1 195 -6 353 -4 110 -3 118 4 55 5 -41
11 -156 14 -255z m-1592 -167 c-105 -130 -184 -275 -226 -418 -14 -47 -25 -77
-25 -66 -1 34 60 200 101 275 48 87 113 187 128 196 5 3 15 15 21 26 10 20 10
20 -18 3 -15 -10 -63 -44 -106 -76 -43 -32 -73 -49 -67 -38 6 11 20 25 33 31
12 7 52 35 90 62 37 27 70 47 73 44 3 -3 14 3 25 14 41 41 27 15 -29 -53z
m-257 -670 c0 -153 -1 -164 -20 -172 -11 -4 -135 -11 -275 -13 -235 -5 -271
-3 -460 21 -217 29 -332 51 -470 92 -47 14 -93 28 -103 31 -10 2 -17 7 -14 9
2 2 39 -7 83 -20 140 -42 308 -75 511 -102 181 -24 219 -25 448 -21 138 3 258
8 268 12 15 6 17 22 17 120 0 93 8 205 14 205 1 0 2 -73 1 -162z m-1470 20
c63 -24 111 -44 107 -46 -10 -3 -214 72 -239 88 -17 11 -17 11 0 6 10 -3 69
-25 132 -48z"/>
<path d="M6688 8123 c6 -2 18 -2 25 0 6 3 1 5 -13 5 -14 0 -19 -2 -12 -5z"/>
<path d="M6603 8107 c-51 -19 -51 -28 1 -13 27 8 51 17 54 20 9 9 -20 5 -55
-7z"/>
<path d="M6740 8111 c8 -6 29 -11 45 -11 l30 0 -25 -20 c-14 -10 -36 -21 -50
-23 -14 -2 -5 -4 20 -5 25 0 39 2 32 5 -21 8 22 34 45 27 10 -3 7 1 -7 9 -30
17 -113 33 -90 18z"/>
<path d="M6655 8080 c3 -5 8 -10 11 -10 2 0 4 5 4 10 0 6 -5 10 -11 10 -5 0
-7 -4 -4 -10z"/>
<path d="M6875 8080 c-3 -6 1 -7 9 -4 18 7 21 14 7 14 -6 0 -13 -4 -16 -10z"/>
<path d="M6505 8059 c-16 -10 -26 -19 -22 -19 11 0 67 29 67 35 0 9 -15 4 -45
-16z"/>
<path d="M6690 8070 c-8 -5 -10 -10 -5 -10 6 0 17 5 25 10 8 5 11 10 5 10 -5
0 -17 -5 -25 -10z"/>
<path d="M6587 8055 c9 -15 7 -22 -5 -33 -15 -12 -15 -12 6 -7 27 8 29 -6 2
-23 -18 -11 -22 -10 -30 10 -6 17 -9 18 -9 6 -1 -9 3 -19 9 -23 5 -3 -8 -22
-28 -41 -27 -26 -21 -23 23 12 33 26 83 57 110 70 28 13 42 23 32 23 -10 1
-27 -4 -38 -9 -15 -8 -19 -7 -19 5 0 8 -5 15 -11 15 -6 0 -8 -9 -4 -20 4 -12
2 -20 -5 -20 -6 0 -9 4 -6 9 3 4 -4 17 -16 27 -21 19 -21 19 -11 -1z"/>
<path d="M6863 8046 c-9 -11 -6 -16 13 -25 35 -15 43 -13 19 5 -20 16 -20 16
3 9 13 -4 22 -2 22 4 0 6 -4 11 -9 11 -5 0 -15 2 -23 5 -7 2 -18 -2 -25 -9z"/>
<path d="M6818 8043 c7 -3 16 -2 19 1 4 3 -2 6 -13 5 -11 0 -14 -3 -6 -6z"/>
<path d="M6426 7995 c-21 -19 -34 -35 -29 -35 11 0 24 11 52 43 34 38 21 34
-23 -8z"/>
<path d="M6970 8010 c0 -5 5 -10 11 -10 5 0 7 5 4 10 -3 6 -8 10 -11 10 -2 0
-4 -4 -4 -10z"/>
<path d="M6930 7991 c15 -30 30 -35 17 -6 -7 14 -16 25 -20 25 -4 0 -3 -9 3
-19z"/>
<path d="M5443 7943 c9 -2 23 -2 30 0 6 3 -1 5 -18 5 -16 0 -22 -2 -12 -5z"/>
<path d="M6362 7920 c-12 -16 -22 -32 -22 -37 0 -4 11 8 25 27 14 19 25 35 25
37 0 8 -8 0 -28 -27z"/>
<path d="M4798 7913 c7 -3 16 -2 19 1 4 3 -2 6 -13 5 -11 0 -14 -3 -6 -6z"/>
<path d="M4758 7903 c7 -3 16 -2 19 1 4 3 -2 6 -13 5 -11 0 -14 -3 -6 -6z"/>
<path d="M6467 7895 c3 -8 9 -12 14 -9 12 7 11 11 -5 17 -10 4 -13 1 -9 -8z"/>
<path d="M6447 7869 c7 -7 15 -10 18 -7 3 3 -2 9 -12 12 -14 6 -15 5 -6 -5z"/>
<path d="M6432 7818 c-10 -30 -10 -31 3 -14 13 17 21 46 12 46 -1 0 -8 -15
-15 -32z"/>
<path d="M6406 7763 c-6 -14 -5 -15 5 -6 7 7 10 15 7 18 -3 3 -9 -2 -12 -12z"/>
<path d="M4355 7740 c-3 -6 1 -7 9 -4 18 7 21 14 7 14 -6 0 -13 -4 -16 -10z"/>
<path d="M5543 7453 c9 -2 25 -2 35 0 9 3 1 5 -18 5 -19 0 -27 -2 -17 -5z"/>
<path d="M4068 7443 c7 -3 16 -2 19 1 4 3 -2 6 -13 5 -11 0 -14 -3 -6 -6z"/>
<path d="M4065 7422 c-68 -23 -120 -65 -144 -116 -25 -51 -26 -74 -5 -104 19
-27 37 -28 79 -2 72 45 144 62 231 55 78 -6 83 -5 98 16 42 61 -8 138 -104
158 -68 15 -96 13 -155 -7z"/>
<path d="M5467 7426 c-75 -16 -112 -50 -112 -105 0 -65 16 -75 113 -67 100 7
190 -10 271 -54 65 -36 85 -37 105 -8 49 69 -21 169 -150 217 -68 25 -158 32
-227 17z"/>
<path d="M3761 7024 c0 -11 3 -14 6 -6 3 7 2 16 -1 19 -3 4 -6 -2 -5 -13z"/>
<path d="M4055 6986 c-69 -30 -108 -109 -107 -221 1 -77 23 -128 69 -160 50
-33 90 -32 140 4 82 59 114 179 74 273 -19 45 -81 108 -106 108 -7 0 -19 2
-27 5 -7 2 -27 -2 -43 -9z"/>
<path d="M5501 6934 c-107 -96 -112 -272 -12 -357 33 -27 51 -32 106 -28 78 6
145 97 145 197 0 137 -62 224 -159 224 -33 0 -49 -7 -80 -36z"/>
<path d="M3691 6784 c0 -11 3 -14 6 -6 3 7 2 16 -1 19 -3 4 -6 -2 -5 -13z"/>
<path d="M4718 6713 c6 -2 18 -2 25 0 6 3 1 5 -13 5 -14 0 -19 -2 -12 -5z"/>
<path d="M4485 6690 c-143 -23 -254 -72 -329 -146 -62 -61 -87 -115 -80 -177
13 -141 109 -262 275 -347 111 -57 114 -62 107 -160 -7 -95 -47 -135 -168
-166 -52 -13 -74 -14 -119 -5 -168 33 -289 153 -331 329 -22 95 -50 50 -50
-82 0 -172 75 -289 236 -367 76 -37 84 -44 84 -69 0 -55 51 -227 92 -310 82
-167 203 -253 347 -248 36 1 125 -2 197 -7 94 -6 146 -5 180 4 62 15 144 71
178 120 23 32 35 40 84 50 83 19 179 61 261 116 93 62 234 210 311 327 72 108
171 307 195 391 9 31 18 57 21 57 3 0 27 -11 54 -25 60 -30 66 -31 81 -4 15
29 -12 99 -58 150 -46 51 -109 74 -203 74 -83 0 -127 -18 -163 -66 -29 -39
-16 -64 41 -79 26 -7 49 -14 50 -16 7 -5 -56 -90 -95 -128 -97 -95 -219 -164
-378 -212 -82 -25 -105 -28 -260 -28 -183 -1 -235 8 -337 60 -72 36 -91 72
-84 159 6 80 12 88 109 137 136 68 301 218 347 314 33 70 37 131 12 180 -41
80 -123 136 -233 160 -89 19 -291 26 -374 14z m113 -177 c-10 -2 -26 -2 -35 0
-10 3 -2 5 17 5 19 0 27 -2 18 -5z m-196 -32 c-28 -10 -61 -26 -72 -36 -11
-10 -20 -13 -20 -7 0 13 98 62 124 62 12 -1 -3 -9 -32 -19z m438 -27 c0 -2
-13 2 -30 11 -16 9 -30 18 -30 21 0 2 14 -2 30 -11 17 -9 30 -18 30 -21z
m-296 -855 c3 -17 6 -55 6 -83 0 -72 16 -161 44 -247 31 -94 52 -106 42 -23
-27 219 -33 344 -18 344 4 0 34 -9 66 -20 49 -18 115 -30 293 -56 l32 -5 -4
-92 c-9 -176 -31 -255 -87 -302 -32 -27 -73 -31 -143 -15 -57 13 -138 15 -221
6 -82 -9 -108 0 -161 56 -41 43 -76 119 -108 238 -37 140 -39 134 54 153 43
10 102 30 132 46 69 36 65 36 73 0z"/>
<path d="M3851 6044 c0 -11 3 -14 6 -6 3 7 2 16 -1 19 -3 4 -6 -2 -5 -13z"/>
<path d="M3371 5974 c0 -11 3 -14 6 -6 3 7 2 16 -1 19 -3 4 -6 -2 -5 -13z"/>
<path d="M3362 5860 c0 -14 2 -19 5 -12 2 6 2 18 0 25 -3 6 -5 1 -5 -13z"/>
<path d="M3910 5876 c0 -2 8 -10 18 -17 15 -13 16 -12 3 4 -13 16 -21 21 -21
13z"/>
<path d="M3970 5806 c0 -2 8 -10 18 -17 15 -13 16 -12 3 4 -13 16 -21 21 -21
13z"/>
<path d="M3360 5740 c0 -5 5 -10 11 -10 5 0 7 5 4 10 -3 6 -8 10 -11 10 -2 0
-4 -4 -4 -10z"/>
<path d="M4208 5703 c6 -2 18 -2 25 0 6 3 1 5 -13 5 -14 0 -19 -2 -12 -5z"/>
<path d="M4081 5514 c0 -11 3 -14 6 -6 3 7 2 16 -1 19 -3 4 -6 -2 -5 -13z"/>
<path d="M4140 5266 c0 -8 4 -17 9 -20 5 -4 7 3 4 14 -6 23 -13 26 -13 6z"/>
<path d="M4488 4923 c6 -2 18 -2 25 0 6 3 1 5 -13 5 -14 0 -19 -2 -12 -5z"/>
<path d="M5355 4834 c-85 -41 -223 -87 -348 -115 -100 -23 -277 -30 -402 -16
l-70 8 43 -40 c59 -54 116 -80 219 -98 228 -39 505 66 634 241 16 21 29 43 29
48 0 15 -35 6 -105 -28z"/>
<path d="M4568 4728 c5 -5 16 -8 23 -6 8 3 3 7 -10 11 -17 4 -21 3 -13 -5z"/>
<path d="M4838 4713 c7 -3 16 -2 19 1 4 3 -2 6 -13 5 -11 0 -14 -3 -6 -6z"/>
<path d="M5008 4553 c6 -2 18 -2 25 0 6 3 1 5 -13 5 -14 0 -19 -2 -12 -5z"/>
<path d="M4146 4145 c4 -8 8 -15 10 -15 2 0 4 7 4 15 0 8 -4 15 -10 15 -5 0
-7 -7 -4 -15z"/>
<path d="M5773 3833 c9 -2 23 -2 30 0 6 3 -1 5 -18 5 -16 0 -22 -2 -12 -5z"/>
<path d="M6259 3683 l-24 -28 28 24 c15 14 27 26 27 28 0 8 -8 1 -31 -24z"/>
<path d="M5575 3450 c-3 -6 1 -7 9 -4 18 7 21 14 7 14 -6 0 -13 -4 -16 -10z"/>
<path d="M6929 3353 c-13 -16 -12 -17 4 -4 16 13 21 21 13 21 -2 0 -10 -8 -17
-17z"/>
<path d="M5369 3309 l-44 -41 48 38 c26 21 47 40 47 41 0 8 -11 0 -51 -38z"/>
<path d="M4311 3264 c0 -11 3 -14 6 -6 3 7 2 16 -1 19 -3 4 -6 -2 -5 -13z"/>
<path d="M6198 3073 c7 -3 16 -2 19 1 4 3 -2 6 -13 5 -11 0 -14 -3 -6 -6z"/>
<path d="M5979 2953 c-13 -16 -12 -17 4 -4 16 13 21 21 13 21 -2 0 -10 -8 -17
-17z"/>
<path d="M5699 2703 c-13 -16 -12 -17 4 -4 16 13 21 21 13 21 -2 0 -10 -8 -17
-17z"/>
<path d="M2439 4989 l-24 -20 28 17 c15 9 27 18 27 20 0 8 -8 4 -31 -17z"/>
<path d="M2412 4690 c0 -14 2 -19 5 -12 2 6 2 18 0 25 -3 6 -5 1 -5 -13z"/>
<path d="M1910 3687 c-3 -3 -4 -39 -2 -81 l4 -76 49 0 c60 0 89 24 89 74 0 51
-27 78 -86 83 -27 3 -51 3 -54 0z"/>
<path d="M1910 3299 l0 -92 58 6 c70 7 92 30 92 91 0 60 -29 86 -98 86 l-52 0
0 -91z"/>
<path d="M2399 3644 c-1 -27 -3 -65 -4 -84 l-4 -36 61 6 c70 7 88 24 88 80 0
48 -22 67 -88 76 l-52 7 -1 -49z"/>
<path d="M2400 3300 l0 -90 49 0 c69 0 106 31 106 90 0 59 -37 90 -106 90
l-49 0 0 -90z"/>
</g>
</svg>
